<?xml version="1.0" encoding="UTF-8" standalone="no"?>
<!-- Created with Inkscape (http://www.inkscape.org/) -->

<svg
   width="15.1001mm"
   height="10.10042mm"
   viewBox="0 0 15.1001 10.10042"
   version="1.1"
   id="svg1"
   inkscape:version="1.4.1 (93de688d07, 2025-03-30)"
   sodipodi:docname="silkscreen.svg"
   xmlns:inkscape="http://www.inkscape.org/namespaces/inkscape"
   xmlns:sodipodi="http://sodipodi.sourceforge.net/DTD/sodipodi-0.dtd"
   xmlns="http://www.w3.org/2000/svg"
   xmlns:svg="http://www.w3.org/2000/svg">
  <sodipodi:namedview
     id="namedview1"
     pagecolor="#ffffff"
     bordercolor="#666666"
     borderopacity="1.0"
     inkscape:showpageshadow="2"
     inkscape:pageopacity="0.0"
     inkscape:pagecheckerboard="0"
     inkscape:deskcolor="#d1d1d1"
     inkscape:document-units="mm"
     inkscape:zoom="5.8860489"
     inkscape:cx="36.866836"
     inkscape:cy="-42.473313"
     inkscape:window-width="2560"
     inkscape:window-height="1348"
     inkscape:window-x="0"
     inkscape:window-y="0"
     inkscape:window-maximized="1"
     inkscape:current-layer="layer1" />
  <defs
     id="defs1" />
  <g
     inkscape:label="Warstwa 1"
     inkscape:groupmode="layer"
     id="layer1"
     transform="translate(-25.22494,-18.141096)">
    <path
       id="rect19"
       style="opacity:1;fill:none;stroke:#000000;stroke-width:0.1;stroke-linecap:square;stroke-dasharray:none;paint-order:stroke markers fill"
       d="m 25.67492,18.191096 c -0.2216,0 -0.39998,0.178376 -0.39998,0.399976 v 1.477946 c 0,0.14864 0.0803,0.277789 0.19999,0.346749 v 5.16e-4 c 0.11168,0.07079 0.18551,0.195394 0.18552,0.337964 v 0.322461 c -10e-6,0.142591 -0.0738,0.267168 -0.18552,0.337964 v 5.17e-4 c -0.11972,0.06896 -0.19999,0.198109 -0.19999,0.346749 v 0.212906 c 0,0.14864 0.0803,0.277789 0.19999,0.346749 v 5.17e-4 c 0.11168,0.07079 0.18551,0.195394 0.18552,0.337964 v 0.322461 c -10e-6,0.142591 -0.0738,0.267168 -0.18552,0.337964 v 5.17e-4 c -0.11972,0.06896 -0.19999,0.198108 -0.19999,0.346748 v 0.212907 c 0,0.14864 0.0803,0.277789 0.19999,0.346749 v 5.17e-4 c 0.11168,0.07079 0.18551,0.195394 0.18552,0.337969 v 0.32246 c -10e-6,0.14259 -0.0738,0.26716 -0.18552,0.33796 v 5.2e-4 c -0.11972,0.069 -0.19999,0.19811 -0.19999,0.34675 v 0.2129 c 0,0.14864 0.0803,0.27779 0.19999,0.34675 v 5.2e-4 c 0.11168,0.0708 0.18551,0.19539 0.18552,0.33796 v 0.32246 c -10e-6,0.14259 -0.0738,0.26717 -0.18552,0.33797 v 5.1e-4 c -0.11972,0.069 -0.19999,0.19811 -0.19999,0.34675 v 0.31213 c 0,0.2216 0.17838,0.39997 0.39998,0.39997 h 1.17563 v -5.1e-4 a 0.60000002,0.5 0 0 0 0.57258,-0.49971 0.60000002,0.5 0 0 0 -0.59996,-0.49972 v -4.948531 h 0.0713 c 0.2216,0 0.39997,-0.178375 0.39997,-0.399975 v -0.889869 h 11.17814 v 0.889869 c 0,0.2216 0.17837,0.399975 0.39997,0.399975 h 0.0713 v 4.948531 a 0.60000002,0.5 0 0 0 -0.59996,0.49972 0.60000002,0.5 0 0 0 0.57258,0.49971 v 5.1e-4 h 0.95859 c 0.2216,0 0.39998,-0.17837 0.39998,-0.39997 v -0.31213 h -10e-4 c 0,-0.14864 -0.0803,-0.27779 -0.19999,-0.34675 v -5.1e-4 c -0.11174,-0.0708 -0.18552,-0.19538 -0.18552,-0.33797 v -0.32246 c 0,-0.14257 0.0738,-0.26717 0.18552,-0.33796 v -5.2e-4 c 0.11972,-0.069 0.19999,-0.19811 0.19999,-0.34675 h 10e-4 v -0.2129 h -10e-4 c 0,-0.14864 -0.0803,-0.27779 -0.19999,-0.34675 v -5.2e-4 c -0.11171,-0.0708 -0.18552,-0.19537 -0.18552,-0.33796 v -0.32246 c 0,-0.142575 0.0738,-0.267179 0.18552,-0.337969 v -5.17e-4 c 0.11972,-0.06896 0.19999,-0.198109 0.19999,-0.346749 h 10e-4 v -0.212907 h -10e-4 c 0,-0.14864 -0.0803,-0.277788 -0.19999,-0.346748 v -5.17e-4 c -0.11171,-0.0708 -0.18552,-0.195373 -0.18552,-0.337964 v -0.322461 c 0,-0.14257 0.0738,-0.267174 0.18552,-0.337964 v -5.17e-4 c 0.11972,-0.06896 0.19999,-0.198109 0.19999,-0.346749 h 10e-4 v -0.212906 h -10e-4 c 0,-0.14864 -0.0803,-0.277789 -0.19999,-0.346749 v -5.17e-4 c -0.11171,-0.0708 -0.18552,-0.195373 -0.18552,-0.337964 v -0.322461 c 0,-0.14257 0.0738,-0.267174 0.18552,-0.337964 v -5.16e-4 c 0.11972,-0.06896 0.19999,-0.198109 0.19999,-0.346749 h 10e-4 v -1.477946 c 0,-0.2216 -0.17838,-0.399976 -0.39998,-0.399976 h -0.19327 c -0.2216,0 -0.39997,0.178376 -0.39997,0.399976 v 1.207161 h -5.2e-4 c -0.007,0.07696 -0.0706,0.136943 -0.14934,0.136943 h -0.71572 c -0.0663,0 -0.12218,-0.04246 -0.14211,-0.101803 v -1.242301 c 0,-0.2216 -0.17838,-0.399976 -0.39998,-0.399976 h -0.19327 c -0.2216,0 -0.39997,0.178376 -0.39997,0.399976 v 1.212329 c -0.009,0.07435 -0.072,0.131775 -0.14883,0.131775 h -0.71572 c -0.0675,0 -0.12421,-0.04434 -0.14314,-0.10542 v -1.238684 c 0,-0.2216 -0.17838,-0.399976 -0.39998,-0.399976 h -0.19327 c -0.2216,0 -0.39997,0.178376 -0.39997,0.399976 v 1.222664 c -0.0133,0.06931 -0.074,0.12144 -0.14728,0.12144 H 34.417 c -0.0695,0 -0.12756,-0.04666 -0.1447,-0.110588 v -1.233516 c 0,-0.2216 -0.17837,-0.399976 -0.39997,-0.399976 h -0.19327 c -0.2216,0 -0.39998,0.178376 -0.39998,0.399976 v 1.227832 c -0.0152,0.06671 -0.0748,0.116272 -0.14624,0.116272 h -0.71572 c -0.0711,0 -0.13009,-0.04912 -0.14573,-0.115239 v -1.228865 c 0,-0.2216 -0.17838,-0.399976 -0.39998,-0.399976 h -0.19327 c -0.2216,0 -0.39997,0.178376 -0.39997,0.399976 v 1.23455 c -0.0174,0.06347 -0.0755,0.109554 -0.1447,0.109554 h -0.7157 c -0.0738,0 -0.13454,-0.05251 -0.14728,-0.122473 v -1.221631 c 0,-0.2216 -0.17837,-0.399976 -0.39997,-0.399976 h -0.19327 c -0.2216,0 -0.39998,0.178376 -0.39998,0.399976 v 1.238167 c -0.0186,0.06154 -0.0758,0.105937 -0.14366,0.105937 h -0.71572 c -0.0761,0 -0.13839,-0.05588 -0.14831,-0.129191 v -1.214913 c 0,-0.2216 -0.17838,-0.399976 -0.39998,-0.399976 h -0.19327 c -0.2216,0 -0.40049,0.178376 -0.40049,0.399976 v 1.242818 c -0.0201,0.05896 -0.0756,0.101286 -0.14159,0.101286 h -0.71572 c -0.0787,0 -0.14281,-0.05999 -0.14934,-0.136943 h -5.2e-4 v -1.207161 c 0,-0.2216 -0.17889,-0.399976 -0.40049,-0.399976 z" />
  </g>
</svg>
