999
dxflib 3.26.4.0
  0
SECTION
  2
HEADER
  9
$ACADVER
  1
AC1015
  9
$HANDSEED
  5
FFFF
  9
$DIMADEC
 70
0
  9
$DIMASZ
 40
2.5
  9
$DIMATFIT
 70
0
  9
$DIMAUNIT
 70
0
  9
$DIMAZIN
 70
2
  9
$DIMBLK
  1

  9
$DIMDEC
 70
4
  9
$DIMDLI
 40
5.0
  9
$DIMDSEP
 70
46
  9
$DIMEXE
 40
1.25
  9
$DIMEXO
 40
0.625
  9
$DIMGAP
 40
0.625
  9
$DIMLFAC
 40
1.0
  9
$DIMLUNIT
 70
2
  9
$DIMSCALE
 40
1.0
  9
$DIMTAD
 70
1
  9
$DIMTIH
 70
0
  9
$DIMTSZ
 40
0.0
  9
$DIMTXT
 40
2.5
  9
$DIMZIN
 70
8
  9
$DWGCODEPAGE
  3
ANSI_1252
  9
$INSUNITS
 70
4
  9
$LTSCALE
 40
1.0
  9
$MAXACTVP
 70
64
  9
$MEASUREMENT
 70
1
  9
$MIRRTEXT
 70
0
  9
$PDMODE
 70
0
  9
$PDSIZE
 40
0.0
  0
ENDSEC
  0
SECTION
  2
TABLES
  0
TABLE
  2
VPORT
  5
8
100
AcDbSymbolTable
 70
1
  0
VPORT
  5
30
100
AcDbSymbolTableRecord
100
AcDbViewportTableRecord
  2
*Active
 70
0
 10
0.0
 20
0.0
 11
1.0
 21
1.0
 12
286.3055555555554861
 22
148.5
 13
0.0
 23
0.0
 14
10.0
 24
10.0
 15
10.0
 25
10.0
 16
0.0
 26
0.0
 36
1.0
 17
0.0
 27
0.0
 37
0.0
 40
297.0
 41
1.92798353909465
 42
50.0
 43
0.0
 44
0.0
 50
0.0
 51
0.0
 71
0
 72
100
 73
1
 74
3
 75
1
 76
1
 77
0
 78
0
281
0
 65
1
110
0.0
120
0.0
130
0.0
111
1.0
121
0.0
131
0.0
112
0.0
122
1.0
132
0.0
 79
0
146
0.0
  0
ENDTAB
  0
TABLE
  2
LTYPE
  5
5
100
AcDbSymbolTable
 70
41
  0
LTYPE
  5
16
100
AcDbSymbolTableRecord
100
AcDbLinetypeTableRecord
  2
Continuous
 70
0
  3
Solid line
 72
65
 73
0
 40
0.0
  0
LTYPE
  5
31
100
AcDbSymbolTableRecord
100
AcDbLinetypeTableRecord
  2
DASHDOT
 70
0
  3
Dash dot __ . __ . __ . __ . __ . __ . __ . __
 72
65
 73
4
 40
25.3999999999999986
 49
12.6999999999999993
 74
0
 49
-6.3499999999999996
 74
0
 49
0.0
 74
0
 49
-6.3499999999999996
 74
0
  0
LTYPE
  5
32
100
AcDbSymbolTableRecord
100
AcDbLinetypeTableRecord
  2
DASHED2
 70
0
  3
Dashed (.5x) _ _ _ _ _ _ _ _ _ _ _ _ _ _ _ _ _ 
 72
65
 73
2
 40
9.5249999999999986
 49
6.3499999999999996
 74
0
 49
-3.1749999999999998
 74
0
  0
LTYPE
  5
33
100
AcDbSymbolTableRecord
100
AcDbLinetypeTableRecord
  2
ACAD_ISO12W100
 70
0
  3
ISO dash double-dot __ . . __ . . __ . . __ . . 
 72
65
 73
6
 40
21.0
 49
12.0
 74
0
 49
-3.0
 74
0
 49
0.0
 74
0
 49
-3.0
 74
0
 49
0.0
 74
0
 49
-3.0
 74
0
  0
LTYPE
  5
34
100
AcDbSymbolTableRecord
100
AcDbLinetypeTableRecord
  2
ACAD_ISO02W100
 70
0
  3
ISO dash __ __ __ __ __ __ __ __ __ __ __ __ __
 72
65
 73
2
 40
15.0
 49
12.0
 74
0
 49
-3.0
 74
0
  0
LTYPE
  5
35
100
AcDbSymbolTableRecord
100
AcDbLinetypeTableRecord
  2
DOT
 70
0
  3
Dot . . . . . . . . . . . . . . . . . . . . . . . .
 72
65
 73
2
 40
6.3499999999999996
 49
0.0
 74
0
 49
-6.3499999999999996
 74
0
  0
LTYPE
  5
36
100
AcDbSymbolTableRecord
100
AcDbLinetypeTableRecord
  2
DIVIDE
 70
0
  3
Divide ____ . . ____ . . ____ . . ____ . . ____
 72
65
 73
6
 40
31.75
 49
12.6999999999999993
 74
0
 49
-6.3499999999999996
 74
0
 49
0.0
 74
0
 49
-6.3499999999999996
 74
0
 49
0.0
 74
0
 49
-6.3499999999999996
 74
0
  0
LTYPE
  5
37
100
AcDbSymbolTableRecord
100
AcDbLinetypeTableRecord
  2
CENTERX2
 70
0
  3
Center (2x) ________  __  ________  __  _____
 72
65
 73
4
 40
101.6000000000000085
 49
63.5
 74
0
 49
-12.6999999999999993
 74
0
 49
12.6999999999999993
 74
0
 49
-12.6999999999999993
 74
0
  0
LTYPE
  5
38
100
AcDbSymbolTableRecord
100
AcDbLinetypeTableRecord
  2
HIDDEN
 70
0
  3
Hidden __ __ __ __ __ __ __ __ __ __ __ __ __ __
 72
65
 73
2
 40
9.5249999999999986
 49
6.3499999999999996
 74
0
 49
-3.1749999999999998
 74
0
  0
LTYPE
  5
39
100
AcDbSymbolTableRecord
100
AcDbLinetypeTableRecord
  2
ACAD_ISO10W100
 70
0
  3
ISO dash dot __ . __ . __ . __ . __ . __ . __ . 
 72
65
 73
4
 40
18.0
 49
12.0
 74
0
 49
-3.0
 74
0
 49
0.0
 74
0
 49
-3.0
 74
0
  0
LTYPE
  5
3A
100
AcDbSymbolTableRecord
100
AcDbLinetypeTableRecord
  2
ACAD_ISO09W100
 70
0
  3
ISO long-dash double-short-dash ____ __ __ ____
 72
65
 73
6
 40
45.0
 49
24.0
 74
0
 49
-3.0
 74
0
 49
6.0
 74
0
 49
-3.0
 74
0
 49
6.0
 74
0
 49
-3.0
 74
0
  0
LTYPE
  5
3B
100
AcDbSymbolTableRecord
100
AcDbLinetypeTableRecord
  2
CENTER2
 70
0
  3
Center (.5x) ___ _ ___ _ ___ _ ___ _ ___ _ ___
 72
65
 73
4
 40
28.5750000000000028
 49
19.0500000000000007
 74
0
 49
-3.1749999999999998
 74
0
 49
3.1749999999999998
 74
0
 49
-3.1749999999999998
 74
0
  0
LTYPE
  5
3C
100
AcDbSymbolTableRecord
100
AcDbLinetypeTableRecord
  2
DASHED
 70
0
  3
Dashed __ __ __ __ __ __ __ __ __ __ __ __ __ _
 72
65
 73
2
 40
19.0499999999999972
 49
12.6999999999999993
 74
0
 49
-6.3499999999999996
 74
0
  0
LTYPE
  5
15
100
AcDbSymbolTableRecord
100
AcDbLinetypeTableRecord
  2
BYLAYER
 70
0
  3

 72
65
 73
0
 40
0.0
  0
LTYPE
  5
3D
100
AcDbSymbolTableRecord
100
AcDbLinetypeTableRecord
  2
PHANTOM
 70
0
  3
Phantom ______  __  __  ______  __  __  ______ 
 72
65
 73
6
 40
63.5000000000000071
 49
31.75
 74
0
 49
-6.3499999999999996
 74
0
 49
6.3499999999999996
 74
0
 49
-6.3499999999999996
 74
0
 49
6.3499999999999996
 74
0
 49
-6.3499999999999996
 74
0
  0
LTYPE
  5
3E
100
AcDbSymbolTableRecord
100
AcDbLinetypeTableRecord
  2
PHANTOM2
 70
0
  3
Phantom (.5x) ___ _ _ ___ _ _ ___ _ _ ___ _ _
 72
65
 73
6
 40
31.7500000000000036
 49
15.875
 74
0
 49
-3.1749999999999998
 74
0
 49
3.1749999999999998
 74
0
 49
-3.1749999999999998
 74
0
 49
3.1749999999999998
 74
0
 49
-3.1749999999999998
 74
0
  0
LTYPE
  5
3F
100
AcDbSymbolTableRecord
100
AcDbLinetypeTableRecord
  2
ACAD_ISO15W100
 70
0
  3
ISO double-dash triple-dot __ __ . . . __ __ . .
 72
65
 73
10
 40
39.0
 49
12.0
 74
0
 49
-3.0
 74
0
 49
12.0
 74
0
 49
-3.0
 74
0
 49
0.0
 74
0
 49
-3.0
 74
0
 49
0.0
 74
0
 49
-3.0
 74
0
 49
0.0
 74
0
 49
-3.0
 74
0
  0
LTYPE
  5
14
100
AcDbSymbolTableRecord
100
AcDbLinetypeTableRecord
  2
BYBLOCK
 70
0
  3

 72
65
 73
0
 40
0.0
  0
LTYPE
  5
40
100
AcDbSymbolTableRecord
100
AcDbLinetypeTableRecord
  2
ACAD_ISO14W100
 70
0
  3
ISO dash triple-dot __ . . . __ . . . __ . . . _
 72
65
 73
8
 40
24.0
 49
12.0
 74
0
 49
-3.0
 74
0
 49
0.0
 74
0
 49
-3.0
 74
0
 49
0.0
 74
0
 49
-3.0
 74
0
 49
0.0
 74
0
 49
-3.0
 74
0
  0
LTYPE
  5
41
100
AcDbSymbolTableRecord
100
AcDbLinetypeTableRecord
  2
DIVIDEX2
 70
0
  3
Divide (2x) ________  .  .  ________  .  .  _
 72
65
 73
6
 40
63.5
 49
25.3999999999999986
 74
0
 49
-12.6999999999999993
 74
0
 49
0.0
 74
0
 49
-12.6999999999999993
 74
0
 49
0.0
 74
0
 49
-12.6999999999999993
 74
0
  0
LTYPE
  5
42
100
AcDbSymbolTableRecord
100
AcDbLinetypeTableRecord
  2
BORDER
 70
0
  3
Border __ __ . __ __ . __ __ . __ __ . __ __ .
 72
65
 73
6
 40
44.4499999999999957
 49
12.6999999999999993
 74
0
 49
-6.3499999999999996
 74
0
 49
12.6999999999999993
 74
0
 49
-6.3499999999999996
 74
0
 49
0.0
 74
0
 49
-6.3499999999999996
 74
0
  0
LTYPE
  5
43
100
AcDbSymbolTableRecord
100
AcDbLinetypeTableRecord
  2
DIVIDE2
 70
0
  3
Divide (.5x) __..__..__..__..__..__..__..__.._
 72
65
 73
6
 40
15.875
 49
6.3499999999999996
 74
0
 49
-3.1749999999999998
 74
0
 49
0.0
 74
0
 49
-3.1749999999999998
 74
0
 49
0.0
 74
0
 49
-3.1749999999999998
 74
0
  0
LTYPE
  5
44
100
AcDbSymbolTableRecord
100
AcDbLinetypeTableRecord
  2
DOT2
 70
0
  3
Dot (.5x) ........................................
 72
65
 73
2
 40
3.1749999999999998
 49
0.0
 74
0
 49
-3.1749999999999998
 74
0
  0
LTYPE
  5
45
100
AcDbSymbolTableRecord
100
AcDbLinetypeTableRecord
  2
HIDDEN2
 70
0
  3
Hidden (.5x) _ _ _ _ _ _ _ _ _ _ _ _ _ _ _ _ _ 
 72
65
 73
2
 40
4.7624999999999993
 49
3.1749999999999998
 74
0
 49
-1.5874999999999999
 74
0
  0
LTYPE
  5
46
100
AcDbSymbolTableRecord
100
AcDbLinetypeTableRecord
  2
DASHDOT2
 70
0
  3
Dash dot (.5x) _._._._._._._._._._._._._._._.
 72
65
 73
4
 40
12.6999999999999993
 49
6.3499999999999996
 74
0
 49
-3.1749999999999998
 74
0
 49
0.0
 74
0
 49
-3.1749999999999998
 74
0
  0
LTYPE
  5
47
100
AcDbSymbolTableRecord
100
AcDbLinetypeTableRecord
  2
ACAD_ISO13W100
 70
0
  3
ISO double-dash double-dot __ __ . . __ __ . . _
 72
65
 73
8
 40
36.0
 49
12.0
 74
0
 49
-3.0
 74
0
 49
12.0
 74
0
 49
-3.0
 74
0
 49
0.0
 74
0
 49
-3.0
 74
0
 49
0.0
 74
0
 49
-3.0
 74
0
  0
LTYPE
  5
48
100
AcDbSymbolTableRecord
100
AcDbLinetypeTableRecord
  2
ACAD_ISO05W100
 70
0
  3
ISO long-dash double-dot ____ .. ____ .. ____ . 
 72
65
 73
6
 40
33.0
 49
24.0
 74
0
 49
-3.0
 74
0
 49
0.0
 74
0
 49
-3.0
 74
0
 49
0.0
 74
0
 49
-3.0
 74
0
  0
LTYPE
  5
49
100
AcDbSymbolTableRecord
100
AcDbLinetypeTableRecord
  2
ACAD_ISO06W100
 70
0
  3
ISO long-dash triple-dot ____ ... ____ ... ____
 72
65
 73
8
 40
36.0
 49
24.0
 74
0
 49
-3.0
 74
0
 49
0.0
 74
0
 49
-3.0
 74
0
 49
0.0
 74
0
 49
-3.0
 74
0
 49
0.0
 74
0
 49
-3.0
 74
0
  0
LTYPE
  5
4A
100
AcDbSymbolTableRecord
100
AcDbLinetypeTableRecord
  2
BORDERX2
 70
0
  3
Border (2x) ____  ____  .  ____  ____  .  ___
 72
65
 73
6
 40
88.8999999999999915
 49
25.3999999999999986
 74
0
 49
-12.6999999999999993
 74
0
 49
25.3999999999999986
 74
0
 49
-12.6999999999999993
 74
0
 49
0.0
 74
0
 49
-12.6999999999999993
 74
0
  0
LTYPE
  5
4B
100
AcDbSymbolTableRecord
100
AcDbLinetypeTableRecord
  2
DOTX2
 70
0
  3
Dot (2x) .  .  .  .  .  .  .  .  .  .  .  .  .  .
 72
65
 73
2
 40
12.6999999999999993
 49
0.0
 74
0
 49
-12.6999999999999993
 74
0
  0
LTYPE
  5
4C
100
AcDbSymbolTableRecord
100
AcDbLinetypeTableRecord
  2
ACAD_ISO03W100
 70
0
  3
ISO dash space __    __    __    __    __    __
 72
65
 73
2
 40
30.0
 49
12.0
 74
0
 49
-18.0
 74
0
  0
LTYPE
  5
4D
100
AcDbSymbolTableRecord
100
AcDbLinetypeTableRecord
  2
DASHDOTX2
 70
0
  3
Dash dot (2x) ____  .  ____  .  ____  .  ___
 72
65
 73
4
 40
50.7999999999999972
 49
25.3999999999999986
 74
0
 49
-12.6999999999999993
 74
0
 49
0.0
 74
0
 49
-12.6999999999999993
 74
0
  0
LTYPE
  5
4E
100
AcDbSymbolTableRecord
100
AcDbLinetypeTableRecord
  2
PHANTOMX2
 70
0
  3
Phantom (2x) ____________    ____    ____   _
 72
65
 73
6
 40
127.0000000000000142
 49
63.5
 74
0
 49
-12.6999999999999993
 74
0
 49
12.6999999999999993
 74
0
 49
-12.6999999999999993
 74
0
 49
12.6999999999999993
 74
0
 49
-12.6999999999999993
 74
0
  0
LTYPE
  5
4F
100
AcDbSymbolTableRecord
100
AcDbLinetypeTableRecord
  2
DASHEDX2
 70
0
  3
Dashed (2x) ____  ____  ____  ____  ____  ___
 72
65
 73
2
 40
38.0999999999999943
 49
25.3999999999999986
 74
0
 49
-12.6999999999999993
 74
0
  0
LTYPE
  5
50
100
AcDbSymbolTableRecord
100
AcDbLinetypeTableRecord
  2
ACAD_ISO04W100
 70
0
  3
ISO long-dash dot ____ . ____ . ____ . ____ . _
 72
65
 73
4
 40
30.0
 49
24.0
 74
0
 49
-3.0
 74
0
 49
0.0
 74
0
 49
-3.0
 74
0
  0
LTYPE
  5
51
100
AcDbSymbolTableRecord
100
AcDbLinetypeTableRecord
  2
ACAD_ISO11W100
 70
0
  3
ISO double-dash dot __ __ . __ __ . __ __ . __ _
 72
65
 73
6
 40
33.0
 49
12.0
 74
0
 49
-3.0
 74
0
 49
12.0
 74
0
 49
-3.0
 74
0
 49
0.0
 74
0
 49
-3.0
 74
0
  0
LTYPE
  5
52
100
AcDbSymbolTableRecord
100
AcDbLinetypeTableRecord
  2
ACAD_ISO07W100
 70
0
  3
ISO dot . . . . . . . . . . . . . . . . . . . . 
 72
65
 73
2
 40
3.0
 49
0.0
 74
0
 49
-3.0
 74
0
  0
LTYPE
  5
53
100
AcDbSymbolTableRecord
100
AcDbLinetypeTableRecord
  2
ACAD_ISO08W100
 70
0
  3
ISO long-dash short-dash ____ __ ____ __ ____ _
 72
65
 73
4
 40
36.0
 49
24.0
 74
0
 49
-3.0
 74
0
 49
6.0
 74
0
 49
-3.0
 74
0
  0
LTYPE
  5
54
100
AcDbSymbolTableRecord
100
AcDbLinetypeTableRecord
  2
HIDDENX2
 70
0
  3
Hidden (2x) ____ ____ ____ ____ ____ ____ ____ 
 72
65
 73
2
 40
19.0499999999999972
 49
12.6999999999999993
 74
0
 49
-6.3499999999999996
 74
0
  0
LTYPE
  5
55
100
AcDbSymbolTableRecord
100
AcDbLinetypeTableRecord
  2
CENTER
 70
0
  3
Center ____ _ ____ _ ____ _ ____ _ ____ _ ____
 72
65
 73
4
 40
50.8000000000000043
 49
31.75
 74
0
 49
-6.3499999999999996
 74
0
 49
6.3499999999999996
 74
0
 49
-6.3499999999999996
 74
0
  0
LTYPE
  5
56
100
AcDbSymbolTableRecord
100
AcDbLinetypeTableRecord
  2
BORDER2
 70
0
  3
Border (.5x) __.__.__.__.__.__.__.__.__.__.__.
 72
65
 73
6
 40
22.2249999999999979
 49
6.3499999999999996
 74
0
 49
-3.1749999999999998
 74
0
 49
6.3499999999999996
 74
0
 49
-3.1749999999999998
 74
0
 49
0.0
 74
0
 49
-3.1749999999999998
 74
0
  0
ENDTAB
  0
TABLE
  2
LAYER
  5
2
100
AcDbSymbolTable
 70
1
  0
LAYER
  5
10
100
AcDbSymbolTableRecord
100
AcDbLayerTableRecord
  2
0
 70
0
 62
7
420
16777215
  6
Continuous
370
-3
390
F
  0
ENDTAB
  0
TABLE
  2
STYLE
  5
3
100
AcDbSymbolTable
 70
1
  0
STYLE
  5
57
100
AcDbSymbolTableRecord
100
AcDbTextStyleTableRecord
  2
Standard
 70
0
 40
0.0
 41
1.0
 50
0.0
 71
0
 42
2.5
  3

  4

1001
ACAD
1000
txt
1071
0
  0
ENDTAB
  0
TABLE
  2
VIEW
  5
6
100
AcDbSymbolTable
 70
0
  0
ENDTAB
  0
TABLE
  2
UCS
  5
7
100
AcDbSymbolTable
 70
0
  0
ENDTAB
  0
TABLE
  2
APPID
  5
9
100
AcDbSymbolTable
 70
1
  0
APPID
  5
12
100
AcDbSymbolTableRecord
100
AcDbRegAppTableRecord
  2
ACAD
 70
0
  0
APPID
  5
58
100
AcDbSymbolTableRecord
100
AcDbRegAppTableRecord
  2
QCAD
 70
0
  0
ENDTAB
  0
TABLE
  2
DIMSTYLE
  5
A
100
AcDbSymbolTable
 70
1
100
AcDbDimStyleTable
 71
0
  0
DIMSTYLE
105
27
100
AcDbSymbolTableRecord
100
AcDbDimStyleTableRecord
  2
Standard
 41
2.5
 42
0.625
 43
3.75
 44
1.25
 70
0
 73
0
 74
0
 77
1
 78
8
140
2.5
141
2.5
143
0.03937007874016
147
0.625
171
3
172
1
271
2
272
2
274
3
278
44
283
0
284
8
340
57
  0
ENDTAB
  0
TABLE
  2
BLOCK_RECORD
  5
1
100
AcDbSymbolTable
 70
1
  0
BLOCK_RECORD
  5
1F
100
AcDbSymbolTableRecord
100
AcDbBlockTableRecord
  2
*Model_Space
340
22
  0
BLOCK_RECORD
  5
1B
100
AcDbSymbolTableRecord
100
AcDbBlockTableRecord
  2
*Paper_Space
340
1E
  0
BLOCK_RECORD
  5
23
100
AcDbSymbolTableRecord
100
AcDbBlockTableRecord
  2
*Paper_Space0
340
26
  0
ENDTAB
  0
ENDSEC
  0
SECTION
  2
BLOCKS
  0
BLOCK
  5
20
100
AcDbEntity
  8
0
100
AcDbBlockBegin
  2
*Model_Space
 70
0
 10
0.0
 20
0.0
 30
0.0
  3
*Model_Space
  1

  0
ENDBLK
  5
21
100
AcDbEntity
  8
0
100
AcDbBlockEnd
  0
BLOCK
  5
1C
100
AcDbEntity
 67
1
  8
0
100
AcDbBlockBegin
  2
*Paper_Space
 70
0
 10
0.0
 20
0.0
 30
0.0
  3
*Paper_Space
  1

  0
ENDBLK
  5
1D
100
AcDbEntity
 67
1
  8
0
100
AcDbBlockEnd
  0
BLOCK
  5
24
100
AcDbEntity
  8
0
100
AcDbBlockBegin
  2
*Paper_Space0
 70
0
 10
0.0
 20
0.0
 30
0.0
  3
*Paper_Space0
  1

  0
ENDBLK
  5
25
100
AcDbEntity
  8
0
100
AcDbBlockEnd
  0
ENDSEC
  0
SECTION
  2
ENTITIES
  0
ARC
  5
59
100
AcDbEntity
  8
0
 62
7
420
0
370
-1
 48
1.0
  6
BYLAYER
100
AcDbCircle
 10
0.4490864179479495
 20
-0.4490864090315943
 30
0.0
 40
0.399087409426326
100
AcDbArc
 50
89.8717110041516491
 51
180.1277160065417604
  0
LWPOLYLINE
  5
5A
100
AcDbEntity
  8
0
 62
7
420
0
370
-1
 48
1.0
  6
BYLAYER
100
AcDbPolyline
 90
2
 70
128
 10
0.0500000000000007
 20
-0.4499759999999995
 10
0.0500000000000007
 20
-1.9279219999999988
  0
ARC
  5
5B
100
AcDbEntity
  8
0
 62
7
420
0
370
-1
 48
1.0
  6
BYLAYER
100
AcDbCircle
 10
0.4490290676665279
 20
-1.9288264332005882
 30
0.0
 40
0.3990300926524613
100
AcDbArc
 50
179.8701344821605232
 51
240.0788862646696202
  0
LWPOLYLINE
  5
5C
100
AcDbEntity
  8
0
 62
7
420
0
370
-1
 48
1.0
  6
BYLAYER
100
AcDbPolyline
 90
2
 70
128
 10
0.2499900000000004
 20
-2.2746709999999979
 10
0.2499900000000004
 20
-2.275186999999999
  0
ARC
  5
5D
100
AcDbEntity
  8
0
 62
7
420
0
370
-1
 48
1.0
  6
BYLAYER
100
AcDbCircle
 10
0.0366615332323541
 20
-2.6121914294739486
 30
0.0
 40
0.3988496210584848
100
AcDbArc
 50
359.8621550794525206
 51
57.6656236102658113
  0
LWPOLYLINE
  5
5E
100
AcDbEntity
  8
0
 62
7
420
0
370
-1
 48
1.0
  6
BYLAYER
100
AcDbPolyline
 90
2
 70
128
 10
0.4355100000000007
 20
-2.6131509999999984
 10
0.4355100000000007
 20
-2.935611999999999
  0
ARC
  5
5F
100
AcDbEntity
  8
0
 62
7
420
0
370
-1
 48
1.0
  6
BYLAYER
100
AcDbCircle
 10
0.0367729873634577
 20
-2.9366327515110129
 30
0.0
 40
0.3987383191768279
100
AcDbArc
 50
302.3255466252102792
 51
0.146674685072907
  0
LWPOLYLINE
  5
60
100
AcDbEntity
  8
0
 62
7
420
0
370
-1
 48
1.0
  6
BYLAYER
100
AcDbPolyline
 90
2
 70
128
 10
0.2499900000000004
 20
-3.2735759999999985
 10
0.2499900000000004
 20
-3.274092999999997
  0
ARC
  5
61
100
AcDbEntity
  8
0
 62
7
420
0
370
-1
 48
1.0
  6
BYLAYER
100
AcDbCircle
 10
0.4489667912826497
 20
-3.6199016484434443
 30
0.0
 40
0.3989678994698981
100
AcDbArc
 50
119.9159352423465492
 51
180.1350440108249984
  0
LWPOLYLINE
  5
62
100
AcDbEntity
  8
0
 62
7
420
0
370
-1
 48
1.0
  6
BYLAYER
100
AcDbPolyline
 90
2
 70
128
 10
0.0500000000000007
 20
-3.6208419999999961
 10
0.0500000000000007
 20
-3.8337479999999964
  0
ARC
  5
63
100
AcDbEntity
  8
0
 62
7
420
0
370
-1
 48
1.0
  6
BYLAYER
100
AcDbCircle
 10
0.4490290676665264
 20
-3.8346524332005867
 30
0.0
 40
0.3990300926524598
100
AcDbArc
 50
179.8701344821605232
 51
240.0788862646697623
  0
LWPOLYLINE
  5
64
100
AcDbEntity
  8
0
 62
7
420
0
370
-1
 48
1.0
  6
BYLAYER
100
AcDbPolyline
 90
2
 70
128
 10
0.2499900000000004
 20
-4.1804969999999955
 10
0.2499900000000004
 20
-4.181013999999994
  0
ARC
  5
65
100
AcDbEntity
  8
0
 62
7
420
0
370
-1
 48
1.0
  6
BYLAYER
100
AcDbCircle
 10
0.0366615332323528
 20
-4.5180184294739449
 30
0.0
 40
0.3988496210584861
100
AcDbArc
 50
359.8621550794525206
 51
57.6656236102657402
  0
LWPOLYLINE
  5
66
100
AcDbEntity
  8
0
 62
7
420
0
370
-1
 48
1.0
  6
BYLAYER
100
AcDbPolyline
 90
2
 70
128
 10
0.4355100000000007
 20
-4.5189779999999935
 10
0.4355100000000007
 20
-4.8414389999999941
  0
ARC
  5
67
100
AcDbEntity
  8
0
 62
7
420
0
370
-1
 48
1.0
  6
BYLAYER
100
AcDbCircle
 10
0.0367729873634595
 20
-4.8424597515110079
 30
0.0
 40
0.3987383191768269
100
AcDbArc
 50
302.3255466252100518
 51
0.146674685072907
  0
LWPOLYLINE
  5
68
100
AcDbEntity
  8
0
 62
7
420
0
370
-1
 48
1.0
  6
BYLAYER
100
AcDbPolyline
 90
2
 70
128
 10
0.2499900000000004
 20
-5.1794029999999935
 10
0.2499900000000004
 20
-5.1799199999999921
  0
ARC
  5
69
100
AcDbEntity
  8
0
 62
7
420
0
370
-1
 48
1.0
  6
BYLAYER
100
AcDbCircle
 10
0.4489651568307693
 20
-5.5257277030482745
 30
0.0
 40
0.3989662648938594
100
AcDbArc
 50
119.9157995047006438
 51
180.1350367222507316
  0
LWPOLYLINE
  5
6A
100
AcDbEntity
  8
0
 62
7
420
0
370
-1
 48
1.0
  6
BYLAYER
100
AcDbPolyline
 90
2
 70
128
 10
0.0500000000000007
 20
-5.5266679999999937
 10
0.0500000000000007
 20
-5.739574999999995
  0
ARC
  5
6B
100
AcDbEntity
  8
0
 62
7
420
0
370
-1
 48
1.0
  6
BYLAYER
100
AcDbCircle
 10
0.4490290676665259
 20
-5.7404794332005862
 30
0.0
 40
0.3990300926524588
100
AcDbArc
 50
179.8701344821605232
 51
240.0788862646697623
  0
LWPOLYLINE
  5
6C
100
AcDbEntity
  8
0
 62
7
420
0
370
-1
 48
1.0
  6
BYLAYER
100
AcDbPolyline
 90
2
 70
128
 10
0.2499900000000004
 20
-6.0863239999999941
 10
0.2499900000000004
 20
-6.0868409999999926
  0
ARC
  5
6D
100
AcDbEntity
  8
0
 62
7
420
0
370
-1
 48
1.0
  6
BYLAYER
100
AcDbCircle
 10
0.0366593469527816
 20
-6.4238466438129453
 30
0.0
 40
0.3988518164573609
100
AcDbArc
 50
359.8616120196156203
 51
57.665451547478213
  0
LWPOLYLINE
  5
6E
100
AcDbEntity
  8
0
 62
7
420
0
370
-1
 48
1.0
  6
BYLAYER
100
AcDbPolyline
 90
2
 70
128
 10
0.4355100000000007
 20
-6.4248099999999937
 10
0.4355100000000007
 20
-6.7472699999999932
  0
ARC
  5
6F
100
AcDbEntity
  8
0
 62
7
420
0
370
-1
 48
1.0
  6
BYLAYER
100
AcDbCircle
 10
0.0367734474608128
 20
-6.7482870161348307
 30
0.0
 40
0.3987378495360762
100
AcDbArc
 50
302.3255110912613191
 51
0.1461381092149981
  0
LWPOLYLINE
  5
70
100
AcDbEntity
  8
0
 62
7
420
0
370
-1
 48
1.0
  6
BYLAYER
100
AcDbPolyline
 90
2
 70
128
 10
0.2499900000000004
 20
-7.0852299999999921
 10
0.2499900000000004
 20
-7.0857499999999938
  0
ARC
  5
71
100
AcDbEntity
  8
0
 62
7
420
0
370
-1
 48
1.0
  6
BYLAYER
100
AcDbCircle
 10
0.4490172766075163
 20
-7.4315877688499912
 30
0.0
 40
0.3990183193751256
100
AcDbArc
 50
119.9201332042635926
 51
180.1309890745078235
  0
LWPOLYLINE
  5
72
100
AcDbEntity
  8
0
 62
7
420
0
370
-1
 48
1.0
  6
BYLAYER
100
AcDbPolyline
 90
2
 70
128
 10
0.0500000000000007
 20
-7.4324999999999939
 10
0.0500000000000007
 20
-7.6453999999999951
  0
ARC
  5
73
100
AcDbEntity
  8
0
 62
7
420
0
370
-1
 48
1.0
  6
BYLAYER
100
AcDbCircle
 10
0.4490307024695141
 20
-7.6463044877090711
 30
0.0
 40
0.3990317275747998
100
AcDbArc
 50
179.8701271875201542
 51
240.0787505337115704
  0
LWPOLYLINE
  5
74
100
AcDbEntity
  8
0
 62
7
420
0
370
-1
 48
1.0
  6
BYLAYER
100
AcDbPolyline
 90
2
 70
128
 10
0.2499900000000004
 20
-7.9921499999999952
 10
0.2499900000000004
 20
-7.9926699999999968
  0
ARC
  5
75
100
AcDbEntity
  8
0
 62
7
420
0
370
-1
 48
1.0
  6
BYLAYER
100
AcDbCircle
 10
0.0366555397386711
 20
-8.3296777082130458
 30
0.0
 40
0.3988555970899795
100
AcDbArc
 50
359.8632027418098573
 51
57.6651480577150437
  0
LWPOLYLINE
  5
76
100
AcDbEntity
  8
0
 62
7
420
0
370
-1
 48
1.0
  6
BYLAYER
100
AcDbPolyline
 90
2
 70
128
 10
0.4355100000000007
 20
-8.3306299999999958
 10
0.4355100000000007
 20
-8.6530899999999953
  0
ARC
  5
77
100
AcDbEntity
  8
0
 62
7
420
0
370
-1
 48
1.0
  6
BYLAYER
100
AcDbCircle
 10
0.0367561769080423
 20
-8.6541075056661168
 30
0.0
 40
0.3987551212815127
100
AcDbArc
 50
302.326877336802454
 51
0.1462021186794069
  0
LWPOLYLINE
  5
78
100
AcDbEntity
  8
0
 62
7
420
0
370
-1
 48
1.0
  6
BYLAYER
100
AcDbPolyline
 90
2
 70
128
 10
0.2499900000000004
 20
-8.9910599999999938
 10
0.2499900000000004
 20
-8.9915699999999923
  0
ARC
  5
79
100
AcDbEntity
  8
0
 62
7
420
0
370
-1
 48
1.0
  6
BYLAYER
100
AcDbCircle
 10
0.4490172766075165
 20
-9.3374077688499906
 30
0.0
 40
0.3990183193751257
100
AcDbArc
 50
119.9201332042635215
 51
180.1309890745078235
  0
LWPOLYLINE
  5
7A
100
AcDbEntity
  8
0
 62
7
420
0
370
-1
 48
1.0
  6
BYLAYER
100
AcDbPolyline
 90
2
 70
128
 10
0.0500000000000007
 20
-9.3383199999999924
 10
0.0500000000000007
 20
-9.6504499999999922
  0
ARC
  5
7B
100
AcDbEntity
  8
0
 62
7
420
0
370
-1
 48
1.0
  6
BYLAYER
100
AcDbCircle
 10
0.449081314797054
 20
-9.6513387075467456
 30
0.0
 40
0.3990823043198577
100
AcDbArc
 50
179.8724091918284671
 51
270.1290232921891743
  0
LWPOLYLINE
  5
7C
100
AcDbEntity
  8
0
 62
7
420
0
370
-1
 48
1.0
  6
BYLAYER
100
AcDbPolyline
 90
3
 70
128
 10
0.44998
 20
-10.0504199999999919
 10
1.6256099999999982
 20
-10.0504199999999919
 10
1.6256099999999982
 20
-10.0499099999999935
  0
LWPOLYLINE
  5
7D
100
AcDbEntity
  8
0
 62
7
420
0
370
-1
 48
1.0
  6
BYLAYER
100
AcDbPolyline
 90
4
 70
128
 10
1.5982299999999974
 20
-9.0504799999999932
 10
1.5982299999999974
 20
-4.1519489999999939
 42
-0.414213562373095
 10
1.6482299999999974
 20
-4.1019489999999941
 10
1.6695299999999982
 20
-4.1019489999999941
  0
ARC
  5
7E
100
AcDbEntity
  8
0
 62
7
420
0
370
-1
 48
1.0
  6
BYLAYER
100
AcDbCircle
 10
1.670422960226186
 20
-3.7028719490322297
 30
0.0
 40
0.3990780499940997
100
AcDbArc
 50
269.8717972714184725
 51
0.1289189750670179
  0
LWPOLYLINE
  5
7F
100
AcDbEntity
  8
0
 62
7
420
0
370
-1
 48
1.0
  6
BYLAYER
100
AcDbPolyline
 90
6
 70
128
 10
2.0694999999999979
 20
-3.7019739999999928
 10
2.0694999999999979
 20
-2.8621049999999917
 42
-0.414213562373095
 10
2.1194999999999977
 20
-2.8121049999999919
 10
13.1976399999999998
 20
-2.8121049999999919
 42
-0.414213562373095
 10
13.2476400000000005
 20
-2.8621049999999921
 10
13.2476400000000005
 20
-3.7019739999999928
  0
ARC
  5
80
100
AcDbEntity
  8
0
 62
7
420
0
370
-1
 48
1.0
  6
BYLAYER
100
AcDbCircle
 10
13.6467170397738151
 20
-3.7028719490322293
 30
0.0
 40
0.3990780499941001
100
AcDbArc
 50
179.8710810249329768
 51
270.128202728581698
  0
LWPOLYLINE
  5
81
100
AcDbEntity
  8
0
 62
7
420
0
370
-1
 48
1.0
  6
BYLAYER
100
AcDbPolyline
 90
4
 70
128
 10
13.6476100000000038
 20
-4.1019489999999941
 10
13.6689100000000039
 20
-4.1019489999999941
 42
-0.414213562373095
 10
13.7189100000000046
 20
-4.1519489999999939
 10
13.7189100000000046
 20
-9.0504799999999932
  0
LWPOLYLINE
  5
82
100
AcDbEntity
  8
0
 62
7
420
0
370
-1
 48
1.0
  6
BYLAYER
100
AcDbPolyline
 90
3
 70
128
 10
13.6915300000000038
 20
-10.0499099999999935
 10
13.6915300000000038
 20
-10.0504199999999919
 10
14.6501200000000047
 20
-10.0504199999999919
  0
ARC
  5
83
100
AcDbEntity
  8
0
 62
7
420
0
370
-1
 48
1.0
  6
BYLAYER
100
AcDbCircle
 10
14.6510186852029527
 20
-9.6513387075467474
 30
0.0
 40
0.3990823043198569
100
AcDbArc
 50
269.8709767078105983
 51
0.127590808171555
  0
LWPOLYLINE
  5
84
100
AcDbEntity
  8
0
 62
7
420
0
370
-1
 48
1.0
  6
BYLAYER
100
AcDbPolyline
 90
3
 70
128
 10
15.050100000000004
 20
-9.6504499999999922
 10
15.050100000000004
 20
-9.3383199999999924
 10
15.0491000000000064
 20
-9.3383199999999924
  0
ARC
  5
85
100
AcDbEntity
  8
0
 62
7
420
0
370
-1
 48
1.0
  6
BYLAYER
100
AcDbCircle
 10
14.6500692975304911
 20
-9.337415512290919
 30
0.0
 40
0.399031727574803
100
AcDbArc
 50
359.8701271875201542
 51
60.0787505337115491
  0
LWPOLYLINE
  5
86
100
AcDbEntity
  8
0
 62
7
420
0
370
-1
 48
1.0
  6
BYLAYER
100
AcDbPolyline
 90
2
 70
128
 10
14.8491100000000067
 20
-8.9915699999999923
 10
14.8491100000000067
 20
-8.9910599999999938
  0
ARC
  5
87
100
AcDbEntity
  8
0
 62
7
420
0
370
-1
 48
1.0
  6
BYLAYER
100
AcDbCircle
 10
15.062274773086866
 20
-8.6541454089029379
 30
0.0
 40
0.3986861700376254
100
AcDbArc
 50
179.8483254475053172
 51
237.6785950970120211
  0
LWPOLYLINE
  5
88
100
AcDbEntity
  8
0
 62
7
420
0
370
-1
 48
1.0
  6
BYLAYER
100
AcDbPolyline
 90
2
 70
128
 10
14.6635900000000099
 20
-8.6530899999999953
 10
14.6635900000000099
 20
-8.3306299999999958
  0
ARC
  5
89
100
AcDbEntity
  8
0
 62
7
420
0
370
-1
 48
1.0
  6
BYLAYER
100
AcDbCircle
 10
15.0623164291724319
 20
-8.3296074267370859
 30
0.0
 40
0.3987277404152708
100
AcDbArc
 50
122.3247088437015293
 51
180.1469403567735128
  0
LWPOLYLINE
  5
8A
100
AcDbEntity
  8
0
 62
7
420
0
370
-1
 48
1.0
  6
BYLAYER
100
AcDbPolyline
 90
2
 70
128
 10
14.8491100000000067
 20
-7.9926699999999968
 10
14.8491100000000067
 20
-7.9921499999999952
  0
ARC
  5
8B
100
AcDbEntity
  8
0
 62
7
420
0
370
-1
 48
1.0
  6
BYLAYER
100
AcDbCircle
 10
14.6500827233924937
 20
-7.6463122311499978
 30
0.0
 40
0.3990183193751226
100
AcDbArc
 50
299.9201332042632089
 51
0.1309890745078106
  0
LWPOLYLINE
  5
8C
100
AcDbEntity
  8
0
 62
7
420
0
370
-1
 48
1.0
  6
BYLAYER
100
AcDbPolyline
 90
4
 70
128
 10
15.0491000000000064
 20
-7.6453999999999951
 10
15.050100000000004
 20
-7.6453999999999951
 10
15.050100000000004
 20
-7.4324999999999939
 10
15.0491000000000064
 20
-7.4324999999999939
  0
ARC
  5
8D
100
AcDbEntity
  8
0
 62
7
420
0
370
-1
 48
1.0
  6
BYLAYER
100
AcDbCircle
 10
14.6500692975304965
 20
-7.431595512290917
 30
0.0
 40
0.3990317275747973
100
AcDbArc
 50
359.8701271875201542
 51
60.0787505337119541
  0
LWPOLYLINE
  5
8E
100
AcDbEntity
  8
0
 62
7
420
0
370
-1
 48
1.0
  6
BYLAYER
100
AcDbPolyline
 90
2
 70
128
 10
14.8491100000000067
 20
-7.0857499999999938
 10
14.8491100000000067
 20
-7.0852299999999921
  0
ARC
  5
8F
100
AcDbEntity
  8
0
 62
7
420
0
370
-1
 48
1.0
  6
BYLAYER
100
AcDbCircle
 10
15.0623265525391936
 20
-6.7482870161348361
 30
0.0
 40
0.3987378495360727
100
AcDbArc
 50
179.8538618907874991
 51
237.6744889087383967
  0
LWPOLYLINE
  5
90
100
AcDbEntity
  8
0
 62
7
420
0
370
-1
 48
1.0
  6
BYLAYER
100
AcDbPolyline
 90
2
 70
128
 10
14.6635900000000099
 20
-6.7472699999999932
 10
14.6635900000000099
 20
-6.4248099999999937
  0
ARC
  5
91
100
AcDbEntity
  8
0
 62
7
420
0
370
-1
 48
1.0
  6
BYLAYER
100
AcDbCircle
 10
15.0623255241594833
 20
-6.4237834465633314
 30
0.0
 40
0.3987368455995619
100
AcDbArc
 50
122.3254275056821569
 51
180.1475089272298078
  0
LWPOLYLINE
  5
92
100
AcDbEntity
  8
0
 62
7
420
0
370
-1
 48
1.0
  6
BYLAYER
100
AcDbPolyline
 90
2
 70
128
 10
14.8491100000000067
 20
-6.0868409999999926
 10
14.8491100000000067
 20
-6.0863239999999941
  0
ARC
  5
93
100
AcDbEntity
  8
0
 62
7
420
0
370
-1
 48
1.0
  6
BYLAYER
100
AcDbCircle
 10
14.6501332087173584
 20
-5.7405153515565468
 30
0.0
 40
0.3989678994698971
100
AcDbArc
 50
299.9159352423464497
 51
0.1350440108249887
  0
LWPOLYLINE
  5
94
100
AcDbEntity
  8
0
 62
7
420
0
370
-1
 48
1.0
  6
BYLAYER
100
AcDbPolyline
 90
4
 70
128
 10
15.0491000000000064
 20
-5.739574999999995
 10
15.050100000000004
 20
-5.739574999999995
 10
15.050100000000004
 20
-5.5266679999999937
 10
15.0491000000000064
 20
-5.5266679999999937
  0
ARC
  5
95
100
AcDbEntity
  8
0
 62
7
420
0
370
-1
 48
1.0
  6
BYLAYER
100
AcDbCircle
 10
14.650072567131204
 20
-5.5257636213083527
 30
0.0
 40
0.39902845773539
100
AcDbArc
 50
359.8701417769327691
 51
60.079021996118442
  0
LWPOLYLINE
  5
96
100
AcDbEntity
  8
0
 62
7
420
0
370
-1
 48
1.0
  6
BYLAYER
100
AcDbPolyline
 90
2
 70
128
 10
14.8491100000000067
 20
-5.1799199999999921
 10
14.8491100000000067
 20
-5.1794029999999935
  0
ARC
  5
97
100
AcDbEntity
  8
0
 62
7
420
0
370
-1
 48
1.0
  6
BYLAYER
100
AcDbCircle
 10
15.0623321710672524
 20
-4.8424569198719478
 30
0.0
 40
0.3987434703519091
100
AcDbArc
 50
179.8537340916442986
 51
237.6740445980740901
  0
LWPOLYLINE
  5
98
100
AcDbEntity
  8
0
 62
7
420
0
370
-1
 48
1.0
  6
BYLAYER
100
AcDbPolyline
 90
2
 70
128
 10
14.6635900000000099
 20
-4.8414389999999941
 10
14.6635900000000099
 20
-4.5189779999999935
  0
ARC
  5
99
100
AcDbEntity
  8
0
 62
7
420
0
370
-1
 48
1.0
  6
BYLAYER
100
AcDbCircle
 10
15.0623233369564193
 20
-4.5179552307824213
 30
0.0
 40
0.3987346486791256
100
AcDbArc
 50
122.3252553417215864
 51
180.1469659685614886
  0
LWPOLYLINE
  5
9A
100
AcDbEntity
  8
0
 62
7
420
0
370
-1
 48
1.0
  6
BYLAYER
100
AcDbPolyline
 90
2
 70
128
 10
14.8491100000000067
 20
-4.181013999999994
 10
14.8491100000000067
 20
-4.1804969999999955
  0
ARC
  5
9B
100
AcDbEntity
  8
0
 62
7
420
0
370
-1
 48
1.0
  6
BYLAYER
100
AcDbCircle
 10
14.6501332087173566
 20
-3.8346883515565482
 30
0.0
 40
0.3989678994698989
100
AcDbArc
 50
299.9159352423466771
 51
0.1350440108249887
  0
LWPOLYLINE
  5
9C
100
AcDbEntity
  8
0
 62
7
420
0
370
-1
 48
1.0
  6
BYLAYER
100
AcDbPolyline
 90
4
 70
128
 10
15.0491000000000064
 20
-3.8337479999999964
 10
15.050100000000004
 20
-3.8337479999999964
 10
15.050100000000004
 20
-3.6208419999999961
 10
15.0491000000000064
 20
-3.6208419999999961
  0
ARC
  5
9D
100
AcDbEntity
  8
0
 62
7
420
0
370
-1
 48
1.0
  6
BYLAYER
100
AcDbCircle
 10
14.6500709323334863
 20
-3.6199375667994049
 30
0.0
 40
0.3990300926524562
100
AcDbArc
 50
359.8701344821576527
 51
60.0788862646703805
  0
LWPOLYLINE
  5
9E
100
AcDbEntity
  8
0
 62
7
420
0
370
-1
 48
1.0
  6
BYLAYER
100
AcDbPolyline
 90
2
 70
128
 10
14.8491100000000067
 20
-3.274092999999997
 10
14.8491100000000067
 20
-3.2735759999999985
  0
ARC
  5
9F
100
AcDbEntity
  8
0
 62
7
420
0
370
-1
 48
1.0
  6
BYLAYER
100
AcDbCircle
 10
15.0623321710672524
 20
-2.936629919871955
 30
0.0
 40
0.3987434703519091
100
AcDbArc
 50
179.8537340916442986
 51
237.6740445980739196
  0
LWPOLYLINE
  5
A0
100
AcDbEntity
  8
0
 62
7
420
0
370
-1
 48
1.0
  6
BYLAYER
100
AcDbPolyline
 90
2
 70
128
 10
14.6635900000000099
 20
-2.935611999999999
 10
14.6635900000000099
 20
-2.6131509999999984
  0
ARC
  5
A1
100
AcDbEntity
  8
0
 62
7
420
0
370
-1
 48
1.0
  6
BYLAYER
100
AcDbCircle
 10
15.0623233369564176
 20
-2.6121282307824267
 30
0.0
 40
0.398734648679125
100
AcDbArc
 50
122.3252553417213591
 51
180.1469659685614886
  0
LWPOLYLINE
  5
A2
100
AcDbEntity
  8
0
 62
7
420
0
370
-1
 48
1.0
  6
BYLAYER
100
AcDbPolyline
 90
2
 70
128
 10
14.8491100000000067
 20
-2.275186999999999
 10
14.8491100000000067
 20
-2.2746709999999979
  0
ARC
  5
A3
100
AcDbEntity
  8
0
 62
7
420
0
370
-1
 48
1.0
  6
BYLAYER
100
AcDbCircle
 10
14.6501332087173584
 20
-1.9288623515565506
 30
0.0
 40
0.3989678994698971
100
AcDbArc
 50
299.9159352423464497
 51
0.1350440108249887
  0
LWPOLYLINE
  5
A4
100
AcDbEntity
  8
0
 62
7
420
0
370
-1
 48
1.0
  6
BYLAYER
100
AcDbPolyline
 90
3
 70
128
 10
15.0491000000000064
 20
-1.9279219999999988
 10
15.050100000000004
 20
-1.9279219999999988
 10
15.050100000000004
 20
-0.4499759999999995
  0
ARC
  5
A5
100
AcDbEntity
  8
0
 62
7
420
0
370
-1
 48
1.0
  6
BYLAYER
100
AcDbCircle
 10
14.6510135820520571
 20
-0.4490864090315911
 30
0.0
 40
0.3990874094263231
100
AcDbArc
 50
359.8722839934610533
 51
90.1282889958486066
  0
LWPOLYLINE
  5
A6
100
AcDbEntity
  8
0
 62
7
420
0
370
-1
 48
1.0
  6
BYLAYER
100
AcDbPolyline
 90
2
 70
128
 10
14.6501200000000047
 20
-0.0500000000000007
 10
14.4568500000000064
 20
-0.0500000000000007
  0
ARC
  5
A7
100
AcDbEntity
  8
0
 62
7
420
0
370
-1
 48
1.0
  6
BYLAYER
100
AcDbCircle
 10
14.4559578903049299
 20
-0.4490779037323786
 30
0.0
 40
0.3990789008543763
100
AcDbArc
 50
89.8719196558581928
 51
180.1289398388479981
  0
LWPOLYLINE
  5
A8
100
AcDbEntity
  8
0
 62
7
420
0
370
-1
 48
1.0
  6
BYLAYER
100
AcDbPolyline
 90
3
 70
128
 10
14.0568800000000032
 20
-0.4499759999999995
 10
14.0568800000000032
 20
-1.6571369999999987
 10
14.0563600000000015
 20
-1.6571369999999987
  0
ARC
  5
A9
100
AcDbEntity
  8
0
 62
7
420
0
370
-1
 48
1.0
  6
BYLAYER
100
AcDbCircle
 10
13.9071093058729769
 20
-1.644276260594332
 30
0.0
 40
0.1498037660256226
100
AcDbArc
 50
269.9658429821479899
 51
355.0750619902339054
  0
LWPOLYLINE
  5
AA
100
AcDbEntity
  8
0
 62
7
420
0
370
-1
 48
1.0
  6
BYLAYER
100
AcDbPolyline
 90
2
 70
128
 10
13.9070199999999993
 20
-1.7940799999999975
 10
13.1913000000000018
 20
-1.7940799999999975
  0
ARC
  5
AB
100
AcDbEntity
  8
0
 62
7
420
0
370
-1
 48
1.0
  6
BYLAYER
100
AcDbCircle
 10
13.1908509822710176
 20
-1.6446173953121768
 30
0.0
 40
0.1494632791590932
100
AcDbArc
 50
198.5947016930563791
 51
270.1721282955962806
  0
LWPOLYLINE
  5
AC
100
AcDbEntity
  8
0
 62
7
420
0
370
-1
 48
1.0
  6
BYLAYER
100
AcDbPolyline
 90
2
 70
128
 10
13.0491899999999994
 20
-1.6922769999999971
 10
13.0491899999999994
 20
-0.4499759999999959
  0
ARC
  5
AD
100
AcDbEntity
  8
0
 62
7
420
0
370
-1
 48
1.0
  6
BYLAYER
100
AcDbCircle
 10
12.6501035820520507
 20
-0.4490864090315873
 30
0.0
 40
0.3990874094263228
100
AcDbArc
 50
359.8722839934582112
 51
90.1282889958483509
  0
LWPOLYLINE
  5
AE
100
AcDbEntity
  8
0
 62
7
420
0
370
-1
 48
1.0
  6
BYLAYER
100
AcDbPolyline
 90
2
 70
128
 10
12.6492100000000001
 20
-0.0499999999999972
 10
12.4559400000000018
 20
-0.0499999999999972
  0
ARC
  5
AF
100
AcDbEntity
  8
0
 62
7
420
0
370
-1
 48
1.0
  6
BYLAYER
100
AcDbCircle
 10
12.4550478903049235
 20
-0.4490779037323748
 30
0.0
 40
0.3990789008543745
100
AcDbArc
 50
89.871919655857937
 51
180.1289398388479981
  0
LWPOLYLINE
  5
B0
100
AcDbEntity
  8
0
 62
7
420
0
370
-1
 48
1.0
  6
BYLAYER
100
AcDbPolyline
 90
2
 70
128
 10
12.0559699999999985
 20
-0.4499759999999959
 10
12.0559699999999985
 20
-1.6623049999999964
  0
ARC
  5
B1
100
AcDbEntity
  8
0
 62
7
420
0
370
-1
 48
1.0
  6
BYLAYER
100
AcDbCircle
 10
11.9072973431645064
 20
-1.6443240343060017
 30
0.0
 40
0.1497560483513526
100
AcDbArc
 50
269.9398014235871983
 51
353.103951166150523
  0
LWPOLYLINE
  5
B2
100
AcDbEntity
  8
0
 62
7
420
0
370
-1
 48
1.0
  6
BYLAYER
100
AcDbPolyline
 90
2
 70
128
 10
11.9071400000000018
 20
-1.7940799999999975
 10
11.1914200000000044
 20
-1.7940799999999975
  0
ARC
  5
B3
100
AcDbEntity
  8
0
 62
7
420
0
370
-1
 48
1.0
  6
BYLAYER
100
AcDbCircle
 10
11.1912717474110242
 20
-1.6443930608573907
 30
0.0
 40
0.1496870125585816
100
AcDbArc
 50
197.2013160880123905
 51
270.0567467336943537
  0
LWPOLYLINE
  5
B4
100
AcDbEntity
  8
0
 62
7
420
0
370
-1
 48
1.0
  6
BYLAYER
100
AcDbPolyline
 90
2
 70
128
 10
11.0482800000000019
 20
-1.6886599999999987
 10
11.0482800000000019
 20
-0.4499759999999995
  0
ARC
  5
B5
100
AcDbEntity
  8
0
 62
7
420
0
370
-1
 48
1.0
  6
BYLAYER
100
AcDbCircle
 10
10.6491935820520567
 20
-0.4490864090315898
 30
0.0
 40
0.3990874094263218
100
AcDbArc
 50
359.8722839934610533
 51
90.1282889958488767
  0
LWPOLYLINE
  5
B6
100
AcDbEntity
  8
0
 62
7
420
0
370
-1
 48
1.0
  6
BYLAYER
100
AcDbPolyline
 90
2
 70
128
 10
10.6483000000000025
 20
-0.0500000000000007
 10
10.4550300000000043
 20
-0.0500000000000007
  0
ARC
  5
B7
100
AcDbEntity
  8
0
 62
7
420
0
370
-1
 48
1.0
  6
BYLAYER
100
AcDbCircle
 10
10.4541378903049278
 20
-0.449077903732378
 30
0.0
 40
0.3990789008543763
100
AcDbArc
 50
89.8719196558581928
 51
180.1289398388479981
  0
LWPOLYLINE
  5
B8
100
AcDbEntity
  8
0
 62
7
420
0
370
-1
 48
1.0
  6
BYLAYER
100
AcDbPolyline
 90
2
 70
128
 10
10.055060000000001
 20
-0.4499759999999995
 10
10.055060000000001
 20
-1.6726399999999977
  0
ARC
  5
B9
100
AcDbEntity
  8
0
 62
7
420
0
370
-1
 48
1.0
  6
BYLAYER
100
AcDbCircle
 10
9.9080289737601035
 20
-1.6443528331306618
 30
0.0
 40
0.1497273738721517
100
AcDbArc
 50
269.9047258235512459
 51
349.109975019029207
  0
LWPOLYLINE
  5
BA
100
AcDbEntity
  8
0
 62
7
420
0
370
-1
 48
1.0
  6
BYLAYER
100
AcDbPolyline
 90
2
 70
128
 10
9.9077799999999989
 20
-1.7940799999999975
 10
9.1920600000000015
 20
-1.7940799999999975
  0
ARC
  5
BB
100
AcDbEntity
  8
0
 62
7
420
0
370
-1
 48
1.0
  6
BYLAYER
100
AcDbCircle
 10
9.1915856901311361
 20
-1.6447395179045146
 30
0.0
 40
0.1493412353047975
100
AcDbArc
 50
195.0397728934257771
 51
270.1819725094661635
  0
LWPOLYLINE
  5
BC
100
AcDbEntity
  8
0
 62
7
420
0
370
-1
 48
1.0
  6
BYLAYER
100
AcDbPolyline
 90
2
 70
128
 10
9.0473600000000012
 20
-1.6834919999999975
 10
9.0473600000000012
 20
-0.4499759999999959
  0
ARC
  5
BD
100
AcDbEntity
  8
0
 62
7
420
0
370
-1
 48
1.0
  6
BYLAYER
100
AcDbCircle
 10
8.6482821096950744
 20
-0.4490779037323742
 30
0.0
 40
0.3990789008543755
100
AcDbArc
 50
359.8710601611520019
 51
90.1280803441418215
  0
LWPOLYLINE
  5
BE
100
AcDbEntity
  8
0
 62
7
420
0
370
-1
 48
1.0
  6
BYLAYER
100
AcDbPolyline
 90
2
 70
128
 10
8.6473899999999979
 20
-0.0499999999999972
 10
8.4541199999999996
 20
-0.0499999999999972
  0
ARC
  5
BF
100
AcDbEntity
  8
0
 62
7
420
0
370
-1
 48
1.0
  6
BYLAYER
100
AcDbCircle
 10
8.4532264179479455
 20
-0.4490864090315874
 30
0.0
 40
0.3990874094263224
100
AcDbArc
 50
89.8717110041511376
 51
180.1277160065388898
  0
LWPOLYLINE
  5
C0
100
AcDbEntity
  8
0
 62
7
420
0
370
-1
 48
1.0
  6
BYLAYER
100
AcDbPolyline
 90
2
 70
128
 10
8.0541400000000003
 20
-0.4499759999999959
 10
8.0541400000000003
 20
-1.6778079999999953
  0
ARC
  5
C1
100
AcDbEntity
  8
0
 62
7
420
0
370
-1
 48
1.0
  6
BYLAYER
100
AcDbCircle
 10
7.9081831530558455
 20
-1.6443341498459292
 30
0.0
 40
0.1497461178595847
100
AcDbArc
 50
269.8916600646766142
 51
347.0831160980174559
  0
LWPOLYLINE
  5
C2
100
AcDbEntity
  8
0
 62
7
420
0
370
-1
 48
1.0
  6
BYLAYER
100
AcDbPolyline
 90
2
 70
128
 10
7.9079000000000015
 20
-1.7940799999999939
 10
7.192180000000004
 20
-1.7940799999999939
  0
ARC
  5
C3
100
AcDbEntity
  8
0
 62
7
420
0
370
-1
 48
1.0
  6
BYLAYER
100
AcDbCircle
 10
7.1920056977453708
 20
-1.6445366254225295
 30
0.0
 40
0.1495434761575768
100
AcDbArc
 50
193.2613960028560882
 51
270.066781822035523
  0
LWPOLYLINE
  5
C4
100
AcDbEntity
  8
0
 62
7
420
0
370
-1
 48
1.0
  6
BYLAYER
100
AcDbPolyline
 90
2
 70
128
 10
7.0464500000000037
 20
-1.6788409999999949
 10
7.0464500000000037
 20
-0.4499759999999959
  0
ARC
  5
C5
100
AcDbEntity
  8
0
 62
7
420
0
370
-1
 48
1.0
  6
BYLAYER
100
AcDbCircle
 10
6.6473635820520585
 20
-0.4490864090315883
 30
0.0
 40
0.3990874094263238
100
AcDbArc
 50
359.8722839934610533
 51
90.1282889958488767
  0
LWPOLYLINE
  5
C6
100
AcDbEntity
  8
0
 62
7
420
0
370
-1
 48
1.0
  6
BYLAYER
100
AcDbPolyline
 90
2
 70
128
 10
6.6464700000000043
 20
-0.0499999999999972
 10
6.453200000000006
 20
-0.0499999999999972
  0
ARC
  5
C7
100
AcDbEntity
  8
0
 62
7
420
0
370
-1
 48
1.0
  6
BYLAYER
100
AcDbCircle
 10
6.4523078903049322
 20
-0.4490779037323749
 30
0.0
 40
0.3990789008543754
100
AcDbArc
 50
89.8719196558585764
 51
180.1289398388508118
  0
LWPOLYLINE
  5
C8
100
AcDbEntity
  8
0
 62
7
420
0
370
-1
 48
1.0
  6
BYLAYER
100
AcDbPolyline
 90
2
 70
128
 10
6.0532300000000063
 20
-0.4499759999999959
 10
6.0532300000000063
 20
-1.6845259999999946
  0
ARC
  5
C9
100
AcDbEntity
  8
0
 62
7
420
0
370
-1
 48
1.0
  6
BYLAYER
100
AcDbCircle
 10
5.9092034746730802
 20
-1.644631940843722
 30
0.0
 40
0.1494495766260708
100
AcDbArc
 50
269.7418033035006033
 51
344.517744465470571
  0
LWPOLYLINE
  5
CA
100
AcDbEntity
  8
0
 62
7
420
0
370
-1
 48
1.0
  6
BYLAYER
100
AcDbPolyline
 90
2
 70
128
 10
5.9085300000000061
 20
-1.7940799999999939
 10
5.1928300000000043
 20
-1.7940799999999939
  0
ARC
  5
CB
100
AcDbEntity
  8
0
 62
7
420
0
370
-1
 48
1.0
  6
BYLAYER
100
AcDbCircle
 10
5.1922887554306518
 20
-1.6449385356419242
 30
0.0
 40
0.1491424464616047
100
AcDbArc
 50
190.3005718543446392
 51
270.2079293877325199
  0
LWPOLYLINE
  5
CC
100
AcDbEntity
  8
0
 62
7
420
0
370
-1
 48
1.0
  6
BYLAYER
100
AcDbPolyline
 90
2
 70
128
 10
5.0455500000000058
 20
-1.6716069999999945
 10
5.0455500000000058
 20
-0.4499759999999959
  0
ARC
  5
CD
100
AcDbEntity
  8
0
 62
7
420
0
370
-1
 48
1.0
  6
BYLAYER
100
AcDbCircle
 10
4.6464721096950798
 20
-0.4490779037323743
 30
0.0
 40
0.3990789008543756
100
AcDbArc
 50
359.8710601611491597
 51
90.1280803441414378
  0
LWPOLYLINE
  5
CE
100
AcDbEntity
  8
0
 62
7
420
0
370
-1
 48
1.0
  6
BYLAYER
100
AcDbPolyline
 90
2
 70
128
 10
4.645580000000006
 20
-0.0499999999999972
 10
4.4523100000000078
 20
-0.0499999999999972
  0
ARC
  5
CF
100
AcDbEntity
  8
0
 62
7
420
0
370
-1
 48
1.0
  6
BYLAYER
100
AcDbCircle
 10
4.4514164179479572
 20
-0.4490864090315902
 30
0.0
 40
0.399087409426326
100
AcDbArc
 50
89.8717110041516491
 51
180.1277160065417604
  0
LWPOLYLINE
  5
D0
100
AcDbEntity
  8
0
 62
7
420
0
370
-1
 48
1.0
  6
BYLAYER
100
AcDbPolyline
 90
2
 70
128
 10
4.0523300000000084
 20
-0.4499759999999959
 10
4.0523300000000084
 20
-1.6881429999999966
  0
ARC
  5
D1
100
AcDbEntity
  8
0
 62
7
420
0
370
-1
 48
1.0
  6
BYLAYER
100
AcDbCircle
 10
3.9092548486668042
 20
-1.6444967342380048
 30
0.0
 40
0.1495844090939493
100
AcDbArc
 50
269.7759830329942474
 51
343.0352368908945664
  0
LWPOLYLINE
  5
D2
100
AcDbEntity
  8
0
 62
7
420
0
370
-1
 48
1.0
  6
BYLAYER
100
AcDbPolyline
 90
2
 70
128
 10
3.9086700000000079
 20
-1.7940799999999975
 10
3.1929500000000068
 20
-1.7940799999999975
  0
ARC
  5
D3
100
AcDbEntity
  8
0
 62
7
420
0
370
-1
 48
1.0
  6
BYLAYER
100
AcDbCircle
 10
3.1924043997144484
 20
-1.6449816315985721
 30
0.0
 40
0.1490993666641109
100
AcDbArc
 50
187.6729003935356843
 51
270.2096632878423179
  0
LWPOLYLINE
  5
D4
100
AcDbEntity
  8
0
 62
7
420
0
370
-1
 48
1.0
  6
BYLAYER
100
AcDbPolyline
 90
2
 70
128
 10
3.0446400000000082
 20
-1.6648889999999987
 10
3.0446400000000082
 20
-0.4499759999999995
  0
ARC
  5
D5
100
AcDbEntity
  8
0
 62
7
420
0
370
-1
 48
1.0
  6
BYLAYER
100
AcDbCircle
 10
2.6455535820520599
 20
-0.4490864090315942
 30
0.0
 40
0.3990874094263262
100
AcDbArc
 50
359.8722839934610533
 51
90.1282889958484077
  0
LWPOLYLINE
  5
D6
100
AcDbEntity
  8
0
 62
7
420
0
370
-1
 48
1.0
  6
BYLAYER
100
AcDbPolyline
 90
2
 70
128
 10
2.6446600000000089
 20
-0.0500000000000007
 10
2.4513900000000106
 20
-0.0500000000000007
  0
ARC
  5
D7
100
AcDbEntity
  8
0
 62
7
420
0
370
-1
 48
1.0
  6
BYLAYER
100
AcDbCircle
 10
2.4504214101992221
 20
-0.4495204957514531
 30
0.0
 40
0.3995216698649625
100
AcDbArc
 50
89.861093487000673
 51
180.0653243080703305
  0
LWPOLYLINE
  5
D8
100
AcDbEntity
  8
0
 62
7
420
0
370
-1
 48
1.0
  6
BYLAYER
100
AcDbPolyline
 90
2
 70
128
 10
2.0509000000000093
 20
-0.4499759999999995
 10
2.0509000000000093
 20
-1.6927939999999992
  0
ARC
  5
D9
100
AcDbEntity
  8
0
 62
7
420
0
370
-1
 48
1.0
  6
BYLAYER
100
AcDbCircle
 10
1.9095303846425316
 20
-1.6447791421670801
 30
0.0
 40
0.1493010204889328
100
AcDbArc
 50
269.9154251295117888
 51
341.2404282643857414
  0
LWPOLYLINE
  5
DA
100
AcDbEntity
  8
0
 62
7
420
0
370
-1
 48
1.0
  6
BYLAYER
100
AcDbPolyline
 90
2
 70
128
 10
1.9093100000000085
 20
-1.794080000000001
 10
1.1935900000000075
 20
-1.794080000000001
  0
ARC
  5
DB
100
AcDbEntity
  8
0
 62
7
420
0
370
-1
 48
1.0
  6
BYLAYER
100
AcDbCircle
 10
1.1932258443769621
 20
-1.6445759915895368
 30
0.0
 40
0.1495044519073395
100
AcDbArc
 50
184.8195366355314206
 51
270.1395583920847798
  0
LWPOLYLINE
  5
DC
100
AcDbEntity
  8
0
 62
7
420
0
370
-1
 48
1.0
  6
BYLAYER
100
AcDbPolyline
 90
3
 70
128
 10
1.0442500000000088
 20
-1.6571370000000023
 10
1.0437300000000072
 20
-1.6571370000000023
 10
1.0437300000000072
 20
-0.449976000000003
  0
ARC
  5
DD
100
AcDbEntity
  8
0
 62
7
420
0
370
-1
 48
1.0
  6
BYLAYER
100
AcDbCircle
 10
0.6442085898007965
 20
-0.4495204957514542
 30
0.0
 40
0.3995216698649606
100
AcDbArc
 50
359.9346756919184713
 51
90.1389065129996538
  0
LWPOLYLINE
  5
DE
100
AcDbEntity
  8
0
 62
7
420
0
370
-1
 48
1.0
  6
BYLAYER
100
AcDbPolyline
 90
2
 70
128
 10
0.6432400000000058
 20
-0.0500000000000043
 10
0.44998
 20
-0.0500000000000007
  0
ELLIPSE
  5
DF
100
AcDbEntity
  8
0
 62
256
370
-1
 48
1.0
  6
BYLAYER
100
AcDbEllipse
 10
0.0
 20
0.0
 30
0.0
 11
0.0
 21
0.0
 31
0.0
 40
0.0
 41
0.0
 42
6.2831853071795862
  0
ELLIPSE
  5
E0
100
AcDbEntity
  8
0
 62
256
370
-1
 48
1.0
  6
BYLAYER
100
AcDbEllipse
 10
0.0
 20
0.0
 30
0.0
 11
0.0
 21
0.0
 31
0.0
 40
0.0
 41
0.0
 42
6.2831853071795862
  0
ELLIPSE
  5
E1
100
AcDbEntity
  8
0
 62
256
370
-1
 48
1.0
  6
BYLAYER
100
AcDbEllipse
 10
0.0
 20
0.0
 30
0.0
 11
0.0
 21
0.0
 31
0.0
 40
0.0
 41
0.0
 42
6.2831853071795862
  0
ARC
  5
E2
100
AcDbEntity
  8
0
 62
256
370
-1
 48
1.0
  6
BYLAYER
100
AcDbCircle
 10
1.4873811790378659
 20
-9.5538600775225841
 30
0.0
 40
0.515440552882047
100
AcDbArc
 50
285.5557610768591417
 51
77.5811602547778989
  0
ARC
  5
E3
100
AcDbEntity
  8
0
 62
256
370
-1
 48
1.0
  6
BYLAYER
100
AcDbCircle
 10
13.8297588209621356
 20
-9.5538600775225841
 30
0.0
 40
0.515440552882047
100
AcDbArc
 50
102.4188397452221153
 51
254.4442389231408299
  0
ENDSEC
  0
SECTION
  2
OBJECTS
  0
DICTIONARY
  5
C
100
AcDbDictionary
280
0
281
1
  3
ACAD_GROUP
350
D
  3
ACAD_LAYOUT
350
1A
  3
ACAD_MLINESTYLE
350
17
  3
ACAD_PLOTSETTINGS
350
19
  3
ACAD_PLOTSTYLENAME
350
E
  3
AcDbVariableDictionary
350
E4
  3
QCAD_OBJECTS
350
E5
  0
DICTIONARY
  5
D
100
AcDbDictionary
280
0
281
1
  0
ACDBDICTIONARYWDFLT
  5
E
100
AcDbDictionary
281
1
  3
Normal
350
F
100
AcDbDictionaryWithDefault
340
F
  0
ACDBPLACEHOLDER
  5
F
  0
DICTIONARY
  5
17
100
AcDbDictionary
280
0
281
1
  3
Standard
350
18
  0
MLINESTYLE
  5
18
100
AcDbMlineStyle
  2
STANDARD
 70
0
  3

 62
256
 51
90.0
 52
90.0
 71
2
 49
0.5
 62
256
  6
BYLAYER
 49
-0.5
 62
256
  6
BYLAYER
  0
DICTIONARY
  5
19
100
AcDbDictionary
280
0
281
1
  0
DICTIONARY
  5
1A
100
AcDbDictionary
281
1
  3
Layout1
350
1E
  3
Layout2
350
26
  3
Model
350
22
  0
LAYOUT
  5
1E
100
AcDbPlotSettings
  1

  2
none_device
  4

  6

 40
0.0
 41
0.0
 42
0.0
 43
0.0
 44
0.0
 45
0.0
 46
0.0
 47
0.0
 48
0.0
 49
0.0
140
0.0
141
0.0
142
1.0
143
1.0
 70
688
 72
0
 73
0
 74
5
  7

 75
16
147
1.0
148
0.0
149
0.0
100
AcDbLayout
  1
Layout1
 70
1
 71
1
 10
0.0
 20
0.0
 11
420.0
 21
297.0
 12
0.0
 22
0.0
 32
0.0
 14
100000000000000000000.0
 24
100000000000000000000.0
 34
100000000000000000000.0
 15
-100000000000000000000.0
 25
-100000000000000000000.0
 35
-100000000000000000000.0
146
0.0
 13
0.0
 23
0.0
 33
0.0
 16
1.0
 26
0.0
 36
0.0
 17
0.0
 27
1.0
 37
0.0
 76
0
330
1B
  0
LAYOUT
  5
22
100
AcDbPlotSettings
  1

  2
none_device
  4

  6

 40
0.0
 41
0.0
 42
0.0
 43
0.0
 44
0.0
 45
0.0
 46
0.0
 47
0.0
 48
0.0
 49
0.0
140
0.0
141
0.0
142
1.0
143
1.0
 70
1712
 72
0
 73
0
 74
0
  7

 75
0
147
1.0
148
0.0
149
0.0
100
AcDbLayout
  1
Model
 70
1
 71
0
 10
0.0
 20
0.0
 11
12.0
 21
9.0
 12
0.0
 22
0.0
 32
0.0
 14
0.0
 24
0.0
 34
0.0
 15
0.0
 25
0.0
 35
0.0
146
0.0
 13
0.0
 23
0.0
 33
0.0
 16
1.0
 26
0.0
 36
0.0
 17
0.0
 27
1.0
 37
0.0
 76
0
330
1F
  0
LAYOUT
  5
26
100
AcDbPlotSettings
  1

  2
none_device
  4

  6

 40
0.0
 41
0.0
 42
0.0
 43
0.0
 44
0.0
 45
0.0
 46
0.0
 47
0.0
 48
0.0
 49
0.0
140
0.0
141
0.0
142
1.0
143
1.0
 70
688
 72
0
 73
0
 74
5
  7

 75
16
147
1.0
148
0.0
149
0.0
100
AcDbLayout
  1
Layout2
 70
1
 71
2
 10
0.0
 20
0.0
 11
12.0
 21
9.0
 12
0.0
 22
0.0
 32
0.0
 14
0.0
 24
0.0
 34
0.0
 15
0.0
 25
0.0
 35
0.0
146
0.0
 13
0.0
 23
0.0
 33
0.0
 16
1.0
 26
0.0
 36
0.0
 17
0.0
 27
1.0
 37
0.0
 76
0
330
23
  0
DICTIONARY
  5
E4
100
AcDbDictionary
281
1
  3
DIMASSOC
350
E7
  3
HIDETEXT
350
E6
  0
DICTIONARYVAR
  5
E6
100
DictionaryVariables
280
0
  1
2
  0
DICTIONARYVAR
  5
E7
100
DictionaryVariables
280
0
  1
1
  0
DICTIONARY
  5
E5
100
AcDbDictionary
281
1
  3
ColorSettings/BackgroundColor
350
E8
  3
ColorSettings/ColorMode
350
E9
  3
Grid/DisplayGrid00
350
EA
  3
Grid/DisplayGrid01
350
EB
  3
Grid/DisplayGrid02
350
EC
  3
Grid/DisplayGrid03
350
ED
  3
Grid/GridSpacingX00
350
EE
  3
Grid/GridSpacingX01
350
EF
  3
Grid/GridSpacingX02
350
F0
  3
Grid/GridSpacingX03
350
F1
  3
Grid/GridSpacingY00
350
F2
  3
Grid/GridSpacingY01
350
F3
  3
Grid/GridSpacingY02
350
F4
  3
Grid/GridSpacingY03
350
F5
  3
Grid/IsometricGrid00
350
F6
  3
Grid/IsometricGrid01
350
F7
  3
Grid/IsometricGrid02
350
F8
  3
Grid/IsometricGrid03
350
F9
  3
Grid/IsometricProjection00
350
FA
  3
Grid/IsometricProjection01
350
FB
  3
Grid/IsometricProjection02
350
FC
  3
Grid/IsometricProjection03
350
FD
  3
Grid/MetaGridSpacingX00
350
FE
  3
Grid/MetaGridSpacingX01
350
FF
  3
Grid/MetaGridSpacingX02
350
100
  3
Grid/MetaGridSpacingX03
350
101
  3
Grid/MetaGridSpacingY00
350
102
  3
Grid/MetaGridSpacingY01
350
103
  3
Grid/MetaGridSpacingY02
350
104
  3
Grid/MetaGridSpacingY03
350
105
  3
MultiPageSettings/Columns
350
106
  3
MultiPageSettings/GlueMarginsBottom
350
107
  3
MultiPageSettings/GlueMarginsLeft
350
108
  3
MultiPageSettings/GlueMarginsRight
350
109
  3
MultiPageSettings/GlueMarginsTop
350
10A
  3
MultiPageSettings/PrintCropMarks
350
10B
  3
MultiPageSettings/Rows
350
10C
  3
PageSettings/OffsetX
350
10D
  3
PageSettings/OffsetY
350
10E
  3
PageSettings/PageOrientation
350
10F
  3
PageSettings/PaperHeight
350
110
  3
PageSettings/PaperWidth
350
111
  3
PageSettings/Scale
350
112
  3
PageSettings/ShowPaperBorders
350
113
  3
PageTagSettings/EnablePageTags
350
114
  3
PageTagSettings/TagAlignment
350
115
  3
PageTagSettings/TagFont
350
116
  3
PageTagSettings/TagPosition
350
117
  3
QCADVersion
350
118
  3
UnitSettings/PaperUnit
350
119
  3
ViewportCenter
350
11A
  3
ViewportHeight
350
11B
  3
ViewportWidth
350
11C
  0
XRECORD
  5
E8
330
E5
100
AcDbXrecord
280
1
1000
Bia\U+0142y
  0
XRECORD
  5
E9
330
E5
100
AcDbXrecord
280
1
1000
FullColor
  0
XRECORD
  5
EA
330
E5
100
AcDbXrecord
280
1
290
1
  0
XRECORD
  5
EB
330
E5
100
AcDbXrecord
280
1
290
1
  0
XRECORD
  5
EC
330
E5
100
AcDbXrecord
280
1
290
1
  0
XRECORD
  5
ED
330
E5
100
AcDbXrecord
280
1
290
1
  0
XRECORD
  5
EE
330
E5
100
AcDbXrecord
280
1
1000
auto
  0
XRECORD
  5
EF
330
E5
100
AcDbXrecord
280
1
1000
auto
  0
XRECORD
  5
F0
330
E5
100
AcDbXrecord
280
1
1000
auto
  0
XRECORD
  5
F1
330
E5
100
AcDbXrecord
280
1
1000
auto
  0
XRECORD
  5
F2
330
E5
100
AcDbXrecord
280
1
1000
auto
  0
XRECORD
  5
F3
330
E5
100
AcDbXrecord
280
1
1000
auto
  0
XRECORD
  5
F4
330
E5
100
AcDbXrecord
280
1
1000
auto
  0
XRECORD
  5
F5
330
E5
100
AcDbXrecord
280
1
1000
auto
  0
XRECORD
  5
F6
330
E5
100
AcDbXrecord
280
1
290
0
  0
XRECORD
  5
F7
330
E5
100
AcDbXrecord
280
1
290
0
  0
XRECORD
  5
F8
330
E5
100
AcDbXrecord
280
1
290
0
  0
XRECORD
  5
F9
330
E5
100
AcDbXrecord
280
1
290
0
  0
XRECORD
  5
FA
330
E5
100
AcDbXrecord
280
1
 90
65537
  0
XRECORD
  5
FB
330
E5
100
AcDbXrecord
280
1
 90
65537
  0
XRECORD
  5
FC
330
E5
100
AcDbXrecord
280
1
 90
65537
  0
XRECORD
  5
FD
330
E5
100
AcDbXrecord
280
1
 90
65537
  0
XRECORD
  5
FE
330
E5
100
AcDbXrecord
280
1
1000
auto
  0
XRECORD
  5
FF
330
E5
100
AcDbXrecord
280
1
1000
auto
  0
XRECORD
  5
100
330
E5
100
AcDbXrecord
280
1
1000
auto
  0
XRECORD
  5
101
330
E5
100
AcDbXrecord
280
1
1000
auto
  0
XRECORD
  5
102
330
E5
100
AcDbXrecord
280
1
1000
auto
  0
XRECORD
  5
103
330
E5
100
AcDbXrecord
280
1
1000
auto
  0
XRECORD
  5
104
330
E5
100
AcDbXrecord
280
1
1000
auto
  0
XRECORD
  5
105
330
E5
100
AcDbXrecord
280
1
1000
auto
  0
XRECORD
  5
106
330
E5
100
AcDbXrecord
280
1
 90
1
  0
XRECORD
  5
107
330
E5
100
AcDbXrecord
280
1
 40
10.0
  0
XRECORD
  5
108
330
E5
100
AcDbXrecord
280
1
 40
10.0
  0
XRECORD
  5
109
330
E5
100
AcDbXrecord
280
1
 40
10.0
  0
XRECORD
  5
10A
330
E5
100
AcDbXrecord
280
1
 40
10.0
  0
XRECORD
  5
10B
330
E5
100
AcDbXrecord
280
1
290
0
  0
XRECORD
  5
10C
330
E5
100
AcDbXrecord
280
1
 90
1
  0
XRECORD
  5
10D
330
E5
100
AcDbXrecord
280
1
 40
0.0
  0
XRECORD
  5
10E
330
E5
100
AcDbXrecord
280
1
 40
0.0
  0
XRECORD
  5
10F
330
E5
100
AcDbXrecord
280
1
1000
Portrait
  0
XRECORD
  5
110
330
E5
100
AcDbXrecord
280
1
 40
297.0
  0
XRECORD
  5
111
330
E5
100
AcDbXrecord
280
1
 40
210.0
  0
XRECORD
  5
112
330
E5
100
AcDbXrecord
280
1
1000
1:1
  0
XRECORD
  5
113
330
E5
100
AcDbXrecord
280
1
290
1
  0
XRECORD
  5
114
330
E5
100
AcDbXrecord
280
1
290
0
  0
XRECORD
  5
115
330
E5
100
AcDbXrecord
280
1
1000
Inside
  0
XRECORD
  5
116
330
E5
100
AcDbXrecord
280
1
1000
Arial,10,-1,5,50,0,0,0,0,0
  0
XRECORD
  5
117
330
E5
100
AcDbXrecord
280
1
1000
TopLeft
  0
XRECORD
  5
118
330
E5
100
AcDbXrecord
280
1
1000
3.32.2
  0
XRECORD
  5
119
330
E5
100
AcDbXrecord
280
1
 90
4
  0
XRECORD
  5
11B
330
E5
100
AcDbXrecord
280
1
 40
27.0102415322742964
  0
XRECORD
  5
11C
330
E5
100
AcDbXrecord
280
1
 40
57.2087743812758447
  0
ENDSEC
  0
EOF
